HIERARCHY
ROOT hip
{
  OFFSET 0 90.174 2.4664
  CHANNELS 6 Xposition Yposition Zposition Zrotation Xrotation Yrotation
  JOINT abdomen
  {
    OFFSET 0 -1.186 -1.5018
    CHANNELS 6 Xposition Yposition Zposition Zrotation Xrotation Yrotation
    JOINT abdomen2
    {
      OFFSET 0 9.964 0.2134
      CHANNELS 6 Xposition Yposition Zposition Zrotation Xrotation Yrotation
      JOINT chest
      {
        OFFSET 0 13.134 -3.2573
        CHANNELS 6 Xposition Yposition Zposition Zrotation Xrotation Yrotation
        JOINT neck
        {
          OFFSET 0 20.686 -1.6905
          CHANNELS 6 Xposition Yposition Zposition Zrotation Xrotation Yrotation
          JOINT head
          {
            OFFSET 0 7.238 -0.1237
            CHANNELS 6 Xposition Yposition Zposition Zrotation Xrotation Yrotation
            End Site
            {
              OFFSET 0 0 0
            }
          }
        }
        JOINT lCollar
        {
          OFFSET 1.7069 20.075 5.0056
          CHANNELS 6 Xposition Yposition Zposition Zrotation Xrotation Yrotation
          JOINT lShldr
          {
            OFFSET 13.6458 -0.047 -4.849
            CHANNELS 6 Xposition Yposition Zposition Zrotation Xrotation Yrotation
            JOINT lForeArm
            {
              OFFSET 28.3255 -0.9759 2.2888
              CHANNELS 6 Xposition Yposition Zposition Zrotation Xrotation Yrotation
              JOINT lHand
              {
                OFFSET 22.1583 -0.53 10.8316
                CHANNELS 6 Xposition Yposition Zposition Zrotation Xrotation Yrotation
                JOINT lThumb1
                {
                  OFFSET 0.786 0.112 2.5817
                  CHANNELS 6 Xposition Yposition Zposition Zrotation Xrotation Yrotation
                  JOINT lThumb2
                  {
                    OFFSET 0.3601 -0.878 4.2331
                    CHANNELS 6 Xposition Yposition Zposition Zrotation Xrotation Yrotation
                    JOINT lThumb2_End
                    {
                      OFFSET 1.8127 -1.216 2.2227
                      CHANNELS 6 Xposition Yposition Zposition Zrotation Xrotation Yrotation
                      End Site
                      {
                        OFFSET 0.0181 -0.0122 0.0222
                      }
                    }
                  }
                }
                JOINT lCarpal1
                {
                  OFFSET 0.9571 1.114 1.7695
                  CHANNELS 6 Xposition Yposition Zposition Zrotation Xrotation Yrotation
                  JOINT lIndex1
                  {
                    OFFSET 4.1246 0.487 4.1451
                    CHANNELS 6 Xposition Yposition Zposition Zrotation Xrotation Yrotation
                    JOINT lIndex2
                    {
                      OFFSET 3.4052 -1.454 2.7682
                      CHANNELS 6 Xposition Yposition Zposition Zrotation Xrotation Yrotation
                      JOINT lIndex2_End
                      {
                        OFFSET 1.4531 -1.795 1.2713
                        CHANNELS 6 Xposition Yposition Zposition Zrotation Xrotation Yrotation
                        End Site
                        {
                          OFFSET 0.0145 -0.0179 0.0127
                        }
                      }
                    }
                  }
                  JOINT lMid1
                  {
                    OFFSET 5.6954 0.21 2.1184
                    CHANNELS 6 Xposition Yposition Zposition Zrotation Xrotation Yrotation
                    JOINT lMid2
                    {
                      OFFSET 3.9766 -1.54 2.3863
                      CHANNELS 6 Xposition Yposition Zposition Zrotation Xrotation Yrotation
                      JOINT lMid2_End
                      {
                        OFFSET 1.4042 -1.926 1.125
                        CHANNELS 6 Xposition Yposition Zposition Zrotation Xrotation Yrotation
                        End Site
                        {
                          OFFSET 0.014 -0.0193 0.0113
                        }
                      }
                    }
                  }
                }
                JOINT lCarpal2
                {
                  OFFSET 2.0956 0.66 -0.3894
                  CHANNELS 6 Xposition Yposition Zposition Zrotation Xrotation Yrotation
                  JOINT lRing1
                  {
                    OFFSET 5.0395 -0.09 2.4971
                    CHANNELS 6 Xposition Yposition Zposition Zrotation Xrotation Yrotation
                    JOINT lRing2
                    {
                      OFFSET 3.7921 -1.552 1.4806
                      CHANNELS 6 Xposition Yposition Zposition Zrotation Xrotation Yrotation
                      JOINT lRing2_End
                      {
                        OFFSET 1.4655 -1.808 0.9609
                        CHANNELS 6 Xposition Yposition Zposition Zrotation Xrotation Yrotation
                        End Site
                        {
                          OFFSET 0.0147 -0.0181 0.0096
                        }
                      }
                    }
                  }
                  JOINT lPinky1
                  {
                    OFFSET 4.9141 -1.269 0.3591
                    CHANNELS 6 Xposition Yposition Zposition Zrotation Xrotation Yrotation
                    JOINT lPinky2
                    {
                      OFFSET 3.1477 -1.685 0.8462
                      CHANNELS 6 Xposition Yposition Zposition Zrotation Xrotation Yrotation
                      JOINT lPinky2_End
                      {
                        OFFSET 0.8055 -1.585 0.7955
                        CHANNELS 6 Xposition Yposition Zposition Zrotation Xrotation Yrotation
                        End Site
                        {
                          OFFSET 0.0081 -0.0158 0.008
                        }
                      }
                    }
                  }
                }
              }
            }
          }
        }
        JOINT rCollar
        {
          OFFSET -1.7069 20.075 5.0056
          CHANNELS 6 Xposition Yposition Zposition Zrotation Xrotation Yrotation
          JOINT rShldr
          {
            OFFSET -13.6458 -0.047 -4.849
            CHANNELS 6 Xposition Yposition Zposition Zrotation Xrotation Yrotation
            JOINT rForeArm
            {
              OFFSET -28.3255 -0.9759 2.2888
              CHANNELS 6 Xposition Yposition Zposition Zrotation Xrotation Yrotation
              JOINT rHand
              {
                OFFSET -22.1583 -0.53 10.8316
                CHANNELS 6 Xposition Yposition Zposition Zrotation Xrotation Yrotation
                JOINT rThumb1
                {
                  OFFSET -0.786 0.112 2.5817
                  CHANNELS 6 Xposition Yposition Zposition Zrotation Xrotation Yrotation
                  JOINT rThumb2
                  {
                    OFFSET -0.3601 -0.878 4.2331
                    CHANNELS 6 Xposition Yposition Zposition Zrotation Xrotation Yrotation
                    JOINT rThumb2_End
                    {
                      OFFSET -1.8127 -1.216 2.2227
                      CHANNELS 6 Xposition Yposition Zposition Zrotation Xrotation Yrotation
                      End Site
                      {
                        OFFSET -0.0181 -0.0122 0.0222
                      }
                    }
                  }
                }
                JOINT rCarpal1
                {
                  OFFSET -0.9571 1.114 1.7695
                  CHANNELS 6 Xposition Yposition Zposition Zrotation Xrotation Yrotation
                  JOINT rIndex1
                  {
                    OFFSET -4.1246 0.487 4.1451
                    CHANNELS 6 Xposition Yposition Zposition Zrotation Xrotation Yrotation
                    JOINT rIndex2
                    {
                      OFFSET -3.4052 -1.454 2.7682
                      CHANNELS 6 Xposition Yposition Zposition Zrotation Xrotation Yrotation
                      JOINT rIndex2_End
                      {
                        OFFSET -1.4531 -1.795 1.2713
                        CHANNELS 6 Xposition Yposition Zposition Zrotation Xrotation Yrotation
                        End Site
                        {
                          OFFSET -0.0145 -0.018 0.0127
                        }
                      }
                    }
                  }
                  JOINT rMid1
                  {
                    OFFSET -5.6954 0.21 2.1184
                    CHANNELS 6 Xposition Yposition Zposition Zrotation Xrotation Yrotation
                    JOINT rMid2
                    {
                      OFFSET -3.9766 -1.54 2.3863
                      CHANNELS 6 Xposition Yposition Zposition Zrotation Xrotation Yrotation
                      JOINT rMid2_End
                      {
                        OFFSET -1.4042 -1.926 1.125
                        CHANNELS 6 Xposition Yposition Zposition Zrotation Xrotation Yrotation
                        End Site
                        {
                          OFFSET -0.014 -0.0193 0.0113
                        }
                      }
                    }
                  }
                }
                JOINT rCarpal2
                {
                  OFFSET -2.0956 0.66 -0.3894
                  CHANNELS 6 Xposition Yposition Zposition Zrotation Xrotation Yrotation
                  JOINT rRing1
                  {
                    OFFSET -5.0395 -0.09 2.4971
                    CHANNELS 6 Xposition Yposition Zposition Zrotation Xrotation Yrotation
                    JOINT rRing2
                    {
                      OFFSET -3.7921 -1.552 1.4806
                      CHANNELS 6 Xposition Yposition Zposition Zrotation Xrotation Yrotation
                      JOINT rRing2_End
                      {
                        OFFSET -1.4655 -1.808 0.9609
                        CHANNELS 6 Xposition Yposition Zposition Zrotation Xrotation Yrotation
                        End Site
                        {
                          OFFSET -0.0147 -0.0181 0.0096
                        }
                      }
                    }
                  }
                  JOINT rPinky1
                  {
                    OFFSET -4.9141 -1.269 0.3592
                    CHANNELS 6 Xposition Yposition Zposition Zrotation Xrotation Yrotation
                    JOINT rPinky2
                    {
                      OFFSET -3.1477 -1.685 0.8462
                      CHANNELS 6 Xposition Yposition Zposition Zrotation Xrotation Yrotation
                      JOINT rPinky2_End
                      {
                        OFFSET -0.8055 -1.585 0.7955
                        CHANNELS 6 Xposition Yposition Zposition Zrotation Xrotation Yrotation
                        End Site
                        {
                          OFFSET -0.0081 -0.0158 0.008
                        }
                      }
                    }
                  }
                }
              }
            }
          }
        }
      }
    }
  }
  JOINT lThigh
  {
    OFFSET 8.367 -8.2066 0.5982
    CHANNELS 6 Xposition Yposition Zposition Zrotation Xrotation Yrotation
    JOINT lShin
    {
      OFFSET 2.1923 -43.463 -0.4932
      CHANNELS 6 Xposition Yposition Zposition Zrotation Xrotation Yrotation
      JOINT lFoot
      {
        OFFSET 0.7333 -45.8593 -2.6451
        CHANNELS 6 Xposition Yposition Zposition Zrotation Xrotation Yrotation
        End Site
        {
          OFFSET 2.6618 -4.2699 12.3931
        }
      }
    }
  }
  JOINT rThigh
  {
    OFFSET -8.367 -8.2066 0.5982
    CHANNELS 6 Xposition Yposition Zposition Zrotation Xrotation Yrotation
    JOINT rShin
    {
      OFFSET -2.1923 -43.463 -0.4931
      CHANNELS 6 Xposition Yposition Zposition Zrotation Xrotation Yrotation
      JOINT rFoot
      {
        OFFSET -0.7333 -45.8593 -2.6451
        CHANNELS 6 Xposition Yposition Zposition Zrotation Xrotation Yrotation
        End Site
        {
          OFFSET -2.6618 -4.2699 12.3931
        }
      }
    }
  }
}
MOTION
Frames:	4
Frame Time:	0.0333333
0 90.174 2.4664 0 0 -0 0 -1.186 -1.5018 0 0 -0 0 9.964 0.2134 0 0 -0 0 13.134 -3.2573 0 0 -0 0 20.686 -1.6905 0 0 -0 0 7.238 -0.1237 0 0 -0 1.7069 20.075 5.0056 0 0 -0 13.6458 -0.047 -4.849 1.66051 0.0835086 5.75766 28.3255 -0.9759 2.2888 -0.0175111 0.895433 15.7816 22.1583 -0.53 10.8316 7.95139e-016 -1.98785e-016 -0 0.786 0.112 2.5817 5.46658e-016 -3.97569e-016 -0 0.3601 -0.878 4.2331 5.96354e-016 0 -0 1.8127 -1.216 2.2227 3.97569e-016 1.98785e-016 9.54166e-015 0.9571 1.114 1.7695 1.49089e-016 -3.97569e-016 -0 4.1246 0.487 4.1451 6.4605e-016 0 3.18055e-015 3.4052 -1.454 2.7682 5.96354e-016 0 3.18055e-015 1.4531 -1.795 1.2713 8.94531e-016 -1.98785e-016 6.36111e-015 5.6954 0.21 2.1184 6.4605e-016 0 3.18055e-015 3.9766 -1.54 2.3863 5.96354e-016 0 3.18055e-015 1.4042 -1.926 1.125 8.94531e-016 -1.98785e-016 6.36111e-015 2.0956 0.66 -0.3894 1.49089e-016 -3.97569e-016 -0 5.0395 -0.09 2.4971 6.4605e-016 0 3.18055e-015 3.7921 -1.552 1.4806 5.96354e-016 0 3.18055e-015 1.4655 -1.808 0.9609 8.94531e-016 -1.98785e-016 6.36111e-015 4.9141 -1.269 0.3591 6.4605e-016 0 3.18055e-015 3.1477 -1.685 0.8462 5.96354e-016 0 3.18055e-015 0.8055 -1.585 0.7955 8.94531e-016 -1.98785e-016 6.36111e-015 -1.7069 20.075 5.0056 0 0 -0 -13.6458 -0.047 -4.849 -1.4496 0.0636048 -5.0245 -28.3255 -0.9759 2.2888 -1.74811 1.20616 -16.8394 -22.1583 -0.53 10.8316 -1.19271e-015 1.98785e-016 -3.18055e-015 -0.786 0.112 2.5817 -3.97569e-016 1.98785e-016 -3.18055e-015 -0.3601 -0.878 4.2331 -2.98177e-016 1.98785e-016 -3.18055e-015 -1.8127 -1.216 2.2227 -2.98177e-016 3.97569e-016 -0 -0.9571 1.114 1.7695 4.96962e-016 0 -6.36111e-015 -4.1246 0.487 4.1451 -9.93923e-017 3.97569e-016 -0 -3.4052 -1.454 2.7682 -8.94531e-016 5.96354e-016 -0 -1.4531 -1.795 1.2713 -3.97569e-016 3.97569e-016 -0 -5.6954 0.21 2.1184 -9.93923e-017 3.97569e-016 -0 -3.9766 -1.54 2.3863 -8.94531e-016 5.96354e-016 -0 -1.4042 -1.926 1.125 -3.97569e-016 3.97569e-016 -0 -2.0956 0.66 -0.3894 4.96962e-016 0 -6.36111e-015 -5.0395 -0.09 2.4971 -9.93923e-017 3.97569e-016 -0 -3.7921 -1.552 1.4806 -8.94531e-016 5.96354e-016 -0 -1.4655 -1.808 0.9609 -3.97569e-016 3.97569e-016 -0 -4.9141 -1.269 0.3592 -9.93923e-017 3.97569e-016 -0 -3.1477 -1.685 0.8462 -8.94531e-016 5.96354e-016 -0 -0.8055 -1.585 0.7955 -3.97569e-016 3.97569e-016 -0 8.367 -8.2066 0.5982 -4.66115 -1.03232 0.120763 2.1923 -43.463 -0.4932 0.00990601 1.55097 0.177175 0.7333 -45.8593 -2.6451 4.65196 -0.54114 -0.255042 -8.367 -8.2066 0.5982 4.66115 -1.03222 -0.120763 -2.1923 -43.463 -0.4931 -0.00990459 1.5509 -0.177176 -0.7333 -45.8593 -2.6451 -4.65196 -0.541171 0.255041 
20.2463 9.17761 35.3553 -49.6974 61.9718 46.144 1.77636e-015 -1.186 -1.5018 -1.37452 3.30683 0.217976 0 9.964 0.2134 -2.76858 6.60742 0.516777 0 13.134 -3.2573 -2.76858 6.60743 0.516782 3.55271e-015 20.686 -1.6905 0.000111987 -24.0064 4.55398e-005 -7.10543e-015 7.238 -0.1237 -0.0600581 -22.3427 -0.0243425 1.7069 20.075 5.0056 -8.26566 -0.192599 6.95903 13.6458 -0.047 -4.849 -47.1995 -42.5267 -28.5554 28.3255 -0.9759 2.2888 42.5477 -37.1405 -96.9667 22.1583 -0.53 10.8316 28.248 -1.25826 -16.8762 0.786 0.112 2.5817 0 3.57812e-015 -0 0.3601 -0.878 4.2331 1.87858e-006 -1.43246e-006 -8.73869e-006 1.8127 -1.216 2.2227 2.35676e-006 -1.49291e-007 3.55024e-007 0.9571 1.114 1.7695 -3.18055e-015 3.97569e-015 -0 4.1246 0.487 4.1451 -6.36111e-015 -2.78299e-015 1.59028e-015 3.4052 -1.454 2.7682 1.87858e-006 -1.43246e-006 -8.73869e-006 1.4531 -1.795 1.2713 2.35676e-006 -1.49291e-007 3.55024e-007 5.6954 0.21 2.1184 -6.36111e-015 -2.78299e-015 1.59028e-015 3.9766 -1.54 2.3863 1.87858e-006 -1.43246e-006 -8.73869e-006 1.4042 -1.926 1.125 2.35676e-006 -1.49291e-007 3.55024e-007 2.0956 0.66 -0.3894 -3.18055e-015 3.97569e-015 -0 5.0395 -0.09 2.4971 -6.36111e-015 -2.78299e-015 1.59028e-015 3.7921 -1.552 1.4806 1.87858e-006 -1.43246e-006 -8.73869e-006 1.4655 -1.808 0.9609 2.35676e-006 -1.49291e-007 3.55024e-007 4.9141 -1.269 0.3591 -6.36111e-015 -2.78299e-015 1.59028e-015 3.1477 -1.685 0.8462 1.87858e-006 -1.43246e-006 -8.73869e-006 0.8055 -1.585 0.7955 2.35676e-006 -1.49291e-007 3.55024e-007 -1.7069 20.075 5.0056 4.75968 -0.170082 -4.469 -13.6458 -0.047 -4.849 57.485 -40.752 46.3191 -28.3255 -0.9759 2.2888 -49.1922 -26.4524 74.5617 -22.1583 -0.53 10.8316 22.8008 -30.604 -6.87032 -0.786 0.112 2.5817 1.86617e-006 -1.03135e-006 5.26187e-006 -0.3601 -0.878 4.2331 -0 0 1.59028e-015 -1.8127 -1.216 2.2227 2.82564e-008 -1.00861e-007 -4.58621e-007 -0.9571 1.114 1.7695 3.18055e-015 -1.19271e-015 -7.95139e-016 -4.1246 0.487 4.1451 1.86617e-006 -1.03135e-006 5.26187e-006 -3.4052 -1.454 2.7682 -3.18055e-015 7.95139e-016 1.59028e-015 -1.4531 -1.795 1.2713 2.82564e-008 -1.00861e-007 -4.58621e-007 -5.6954 0.21 2.1184 1.86617e-006 -1.03135e-006 5.26187e-006 -3.9766 -1.54 2.3863 -3.18055e-015 7.95139e-016 1.59028e-015 -1.4042 -1.926 1.125 2.82564e-008 -1.00861e-007 -4.58621e-007 -2.0956 0.66 -0.3894 3.18055e-015 -1.19271e-015 -7.95139e-016 -5.0395 -0.09 2.4971 1.86617e-006 -1.03135e-006 5.26187e-006 -3.7921 -1.552 1.4806 -3.18055e-015 7.95139e-016 1.59028e-015 -1.4655 -1.808 0.9609 2.82564e-008 -1.00861e-007 -4.58621e-007 -4.9141 -1.269 0.3592 1.86617e-006 -1.03135e-006 5.26187e-006 -3.1477 -1.685 0.8462 -3.18055e-015 7.95139e-016 1.59028e-015 -0.8055 -1.585 0.7955 2.82564e-008 -1.00861e-007 -4.58621e-007 8.367 -8.2066 0.5982 9.3829 -8.20377 15.6412 2.1923 -43.463 -0.4932 -7.02885 32.5756 31.0409 0.7333 -45.8593 -2.6451 6.16304 41.4248 -13.0225 -8.367 -8.2066 0.5982 -99.9771 -27.5927 -88.1496 -2.1923 -43.463 -0.4931 -173.678 78.1026 168.52 -0.7333 -45.8593 -2.6451 -9.45721 20.979 -1.44648 
20.3138 9.14399 35.4866 -49.6974 61.9718 46.144 -1.77636e-015 -1.186 -1.5018 -1.37451 3.30683 0.217976 0 9.964 0.2134 -2.76858 6.60742 0.516778 3.55271e-015 13.134 -3.2573 -2.76858 6.60743 0.516782 0 20.686 -1.6905 2.17136e-007 -24.0063 2.99938e-008 0 7.238 -0.1237 -0.230437 -21.9119 -0.577841 1.7069 20.075 5.0056 -8.74337 0.0812625 6.9025 13.6458 -0.047 -4.849 -47.1995 -42.5266 -28.5554 28.3255 -0.9759 2.2888 42.5477 -37.1405 -96.9667 22.1583 -0.53 10.8316 28.5134 -1.32374 -17.3008 0.786 0.112 2.5817 -2.05523e-007 1.24943e-006 1.01475e-006 0.3601 -0.878 4.2331 1.03903e-006 -7.68145e-007 4.26374e-006 1.8127 -1.216 2.2227 5.52147e-007 -6.26506e-007 1.7763e-007 0.9571 1.114 1.7695 -6.36111e-015 0 -0 4.1246 0.487 4.1451 -2.05523e-007 1.24943e-006 1.01475e-006 3.4052 -1.454 2.7682 1.03903e-006 -7.68145e-007 4.26374e-006 1.4531 -1.795 1.2713 5.52147e-007 -6.26506e-007 1.7763e-007 5.6954 0.21 2.1184 -2.05523e-007 1.24943e-006 1.01475e-006 3.9766 -1.54 2.3863 1.03903e-006 -7.68145e-007 4.26374e-006 1.4042 -1.926 1.125 5.52147e-007 -6.26506e-007 1.7763e-007 2.0956 0.66 -0.3894 -6.36111e-015 0 -0 5.0395 -0.09 2.4971 -2.05523e-007 1.24943e-006 1.01475e-006 3.7921 -1.552 1.4806 1.03903e-006 -7.68145e-007 4.26374e-006 1.4655 -1.808 0.9609 5.52147e-007 -6.26506e-007 1.7763e-007 4.9141 -1.269 0.3591 -2.05523e-007 1.24943e-006 1.01475e-006 3.1477 -1.685 0.8462 1.03903e-006 -7.68145e-007 4.26374e-006 0.8055 -1.585 0.7955 5.52147e-007 -6.26506e-007 1.7763e-007 -1.7069 20.075 5.0056 5.08057 0.114755 -4.37344 -13.6458 -0.047 -4.849 57.485 -40.752 46.3191 -28.3255 -0.9759 2.2888 -49.1922 -26.4524 74.5617 -22.1583 -0.53 10.8316 22.7158 -30.3737 -6.61684 -0.786 0.112 2.5817 -1.80111e-006 5.0439e-007 -3.1294e-009 -0.3601 -0.878 4.2331 -3.95205e-008 9.24619e-008 4.63827e-007 -1.8127 -1.216 2.2227 -9.54166e-015 0 -7.95139e-016 -0.9571 1.114 1.7695 -9.54166e-015 -3.97569e-016 -0 -4.1246 0.487 4.1451 -1.80111e-006 5.0439e-007 -3.12939e-009 -3.4052 -1.454 2.7682 -3.95205e-008 9.24619e-008 4.63827e-007 -1.4531 -1.795 1.2713 -9.54166e-015 0 -0 -5.6954 0.21 2.1184 -1.80111e-006 5.0439e-007 -3.12939e-009 -3.9766 -1.54 2.3863 -3.95205e-008 9.24619e-008 4.63827e-007 -1.4042 -1.926 1.125 -9.54166e-015 0 -0 -2.0956 0.66 -0.3894 -9.54166e-015 -3.97569e-016 -0 -5.0395 -0.09 2.4971 -1.80111e-006 5.0439e-007 -3.12939e-009 -3.7921 -1.552 1.4806 -3.95205e-008 9.24619e-008 4.63827e-007 -1.4655 -1.808 0.9609 -9.54166e-015 0 -0 -4.9141 -1.269 0.3592 -1.80111e-006 5.0439e-007 -3.12939e-009 -3.1477 -1.685 0.8462 -3.95205e-008 9.24619e-008 4.63827e-007 -0.8055 -1.585 0.7955 -9.54166e-015 0 -0 8.367 -8.2066 0.5982 9.26083 -7.85095 15.5836 2.1923 -43.463 -0.4932 -6.98166 31.9301 31.0221 0.7333 -45.8593 -2.6451 6.33214 41.6984 -13.0608 -8.367 -8.2066 0.5982 -99.9756 -27.591 -88.1467 -2.1923 -43.463 -0.4931 -173.679 78.1016 168.523 -0.7333 -45.8593 -2.6451 -9.45546 20.9766 -1.44617 
20.3813 9.1104 35.6179 -49.6974 61.9718 46.144 -1.77636e-015 -1.186 -1.5018 -1.37452 3.30683 0.217977 -3.55271e-015 9.964 0.2134 -2.76858 6.60742 0.516778 3.55271e-015 13.134 -3.2573 -2.76858 6.60743 0.516782 -3.55271e-015 20.686 -1.6905 0.000257922 -24.0066 0.000114857 7.10543e-015 7.238 -0.1237 -0.396277 -21.4785 -1.1298 1.7069 20.075 5.0056 -9.22133 0.355877 6.8482 13.6458 -0.047 -4.849 -47.1995 -42.5267 -28.5554 28.3255 -0.9759 2.2888 42.5478 -37.1405 -96.9666 22.1583 -0.53 10.8316 28.7787 -1.39124 -17.7255 0.786 0.112 2.5817 4.24359e-007 2.04461e-006 -2.65888e-007 0.3601 -0.878 4.2331 -2.76214e-007 3.1325e-007 -8.83886e-008 1.8127 -1.216 2.2227 -8.28642e-007 9.3975e-007 -2.65166e-007 0.9571 1.114 1.7695 3.18055e-015 -1.19271e-015 -1.59028e-015 4.1246 0.487 4.1451 4.24359e-007 2.04461e-006 -2.65888e-007 3.4052 -1.454 2.7682 -2.76214e-007 3.1325e-007 -8.83886e-008 1.4531 -1.795 1.2713 -8.28642e-007 9.3975e-007 -2.65166e-007 5.6954 0.21 2.1184 4.24359e-007 2.04461e-006 -2.65888e-007 3.9766 -1.54 2.3863 -2.76214e-007 3.1325e-007 -8.83886e-008 1.4042 -1.926 1.125 -8.28642e-007 9.3975e-007 -2.65166e-007 2.0956 0.66 -0.3894 3.18055e-015 -1.19271e-015 -1.59028e-015 5.0395 -0.09 2.4971 4.24359e-007 2.04461e-006 -2.65888e-007 3.7921 -1.552 1.4806 -2.76214e-007 3.1325e-007 -8.83886e-008 1.4655 -1.808 0.9609 -8.28642e-007 9.3975e-007 -2.65166e-007 4.9141 -1.269 0.3591 4.24359e-007 2.04461e-006 -2.65888e-007 3.1477 -1.685 0.8462 -2.76214e-007 3.1325e-007 -8.83886e-008 0.8055 -1.585 0.7955 -8.28642e-007 9.3975e-007 -2.65166e-007 -1.7069 20.075 5.0056 5.40121 0.400316 -4.27943 -13.6458 -0.047 -4.849 57.485 -40.7521 46.3191 -28.3255 -0.9759 2.2888 -49.1922 -26.4524 74.5617 -22.1583 -0.53 10.8316 22.6298 -30.1436 -6.36345 -0.786 0.112 2.5817 -6.12551e-007 -5.35519e-007 6.21458e-007 -0.3601 -0.878 4.2331 2.45909e-006 -4.9142e-007 4.65155e-006 -1.8127 -1.216 2.2227 6.07287e-007 9.64496e-008 5.11501e-006 -0.9571 1.114 1.7695 -1.10348e-032 3.97569e-016 1.59028e-015 -4.1246 0.487 4.1451 -6.12551e-007 -5.35519e-007 6.21458e-007 -3.4052 -1.454 2.7682 2.45909e-006 -4.9142e-007 4.65155e-006 -1.4531 -1.795 1.2713 6.07287e-007 9.64496e-008 5.11501e-006 -5.6954 0.21 2.1184 -6.12551e-007 -5.35519e-007 6.21458e-007 -3.9766 -1.54 2.3863 2.45909e-006 -4.9142e-007 4.65155e-006 -1.4042 -1.926 1.125 6.07287e-007 9.64496e-008 5.11501e-006 -2.0956 0.66 -0.3894 -1.10348e-032 3.97569e-016 1.59028e-015 -5.0395 -0.09 2.4971 -6.12551e-007 -5.35519e-007 6.21458e-007 -3.7921 -1.552 1.4806 2.45909e-006 -4.9142e-007 4.65155e-006 -1.4655 -1.808 0.9609 6.07287e-007 9.64496e-008 5.11501e-006 -4.9141 -1.269 0.3592 -6.12551e-007 -5.35519e-007 6.21458e-007 -3.1477 -1.685 0.8462 2.45909e-006 -4.9142e-007 4.65155e-006 -0.8055 -1.585 0.7955 6.07287e-007 9.64496e-008 5.11501e-006 8.367 -8.2066 0.5982 9.13927 -7.4976 15.5268 2.1923 -43.463 -0.4932 -6.93558 31.2834 31.0043 0.7333 -45.8593 -2.6451 6.50265 41.9717 -13.1003 -8.367 -8.2066 0.5982 -99.9742 -27.5892 -88.1439 -2.1923 -43.463 -0.4931 -173.68 78.1006 168.525 -0.7333 -45.8593 -2.6451 -9.45372 20.9743 -1.44583 
